<svg height="16" viewBox="0 -960 768 768" width="16" xmlns="http://www.w3.org/2000/svg"><path d="M153.6-307.2v-153.6q0-23.76 16.928-40.68 16.928-16.92 40.704-16.92h345.792q23.776 0 40.576 16.92t16.8 40.68v153.6zm143.8-249.6q-59.8 0-101.8-42.168t-42-102q0-59.832 42.144-101.832 42.152-42 101.944-42H470.6q59.8 0 101.8 42.168t42 102q0 59.832-42.144 101.832-42.152 42-101.944 42zm-86.2 192h345.6v-96H211.2zm86.4-249.6h172.8q36 0 61.2-25.2 25.2-25.2 25.2-61.2T531.6-762q-25.2-25.2-61.2-25.2H297.6q-36 0-61.2 25.2-25.2 25.2-25.2 61.2t25.2 61.2q25.2 25.2 61.2 25.2zm-.168-57.6q12.168 0 20.568-8.232 8.4-8.232 8.4-20.4t-8.232-20.568q-8.232-8.4-20.4-8.4t-20.568 8.232q-8.4 8.232-8.4 20.4t8.232 20.568q8.232 8.4 20.4 8.4zm172.8 0q12.168 0 20.568-8.232 8.4-8.232 8.4-20.4t-8.232-20.568q-8.232-8.4-20.4-8.4T450-721.368q-8.4 8.232-8.4 20.4t8.232 20.568q8.232 8.4 20.4 8.4zM384-364.8zm0-336z"/></svg>