<?xml version="1.0" encoding="UTF-8" standalone="no"?>
<!-- Created with Inkscape (http://www.inkscape.org/) -->

<svg
   width="16"
   height="16"
   viewBox="0 0 4.2333332 4.2333335"
   version="1.1"
   id="svg5"
   inkscape:version="1.1.1 (3bf5ae0d25, 2021-09-20)"
   sodipodi:docname="find-case-senitively.svg"
   xmlns:inkscape="http://www.inkscape.org/namespaces/inkscape"
   xmlns:sodipodi="http://sodipodi.sourceforge.net/DTD/sodipodi-0.dtd"
   xmlns="http://www.w3.org/2000/svg"
   xmlns:svg="http://www.w3.org/2000/svg">
  <sodipodi:namedview
     id="namedview7"
     pagecolor="#ffffff"
     bordercolor="#666666"
     borderopacity="1.0"
     inkscape:pageshadow="2"
     inkscape:pageopacity="0.0"
     inkscape:pagecheckerboard="0"
     inkscape:document-units="px"
     showgrid="true"
     units="px"
     inkscape:zoom="28.284271"
     inkscape:cx="9.5282639"
     inkscape:cy="12.904699"
     inkscape:window-width="2240"
     inkscape:window-height="1294"
     inkscape:window-x="-11"
     inkscape:window-y="-11"
     inkscape:window-maximized="1"
     inkscape:current-layer="layer1"
     inkscape:lockguides="true">
    <inkscape:grid
       type="xygrid"
       id="grid9" />
  </sodipodi:namedview>
  <defs
     id="defs2" />
  <g
     inkscape:label="Layer 1"
     inkscape:groupmode="layer"
     id="layer1">
    <g
       aria-label="Aa"
       id="text3137"
       style="font-size:4.23333px;line-height:1.25;stroke-width:0.264583">
      <path
         d="M 1.8351543,3.403599 1.6785211,2.7177996 H 0.67098861 L 0.51858874,3.403599 H 0.16298904 Q 0.23495564,3.1241993 0.32385557,2.7982329 0.41275549,2.4722665 0.51435541,2.1293668 0.62018865,1.7864671 0.73448856,1.4435673 0.84878846,1.0964343 0.97578835,0.78316789 H 1.407588 Q 1.5303546,1.0964343 1.6404211,1.4435673 1.754721,1.7864671 1.8520876,2.1293668 1.9536875,2.4722665 2.0425875,2.7982329 2.1314874,3.1241993 2.203454,3.403599 Z M 1.1789882,1.0879676 Q 1.0816216,1.3546674 0.96732169,1.7060338 0.85302179,2.0574002 0.75142187,2.4299332 H 1.5980878 Q 1.5007212,2.0489335 1.3864213,1.6975671 1.2763548,1.3419674 1.1789882,1.0879676 Z"
         style="font-family:'Ubuntu Mono';-inkscape-font-specification:'Ubuntu Mono'"
         id="path7641" />
      <path
         d="m 3.3210449,3.1538326 q 0.1312333,0 0.2328332,-0.00847 0.1058332,-0.00847 0.1735665,-0.021167 V 2.5399998 q -0.067733,-0.021167 -0.1650999,-0.033867 -0.093133,-0.0127 -0.1989665,-0.0127 -0.097367,0 -0.1904998,0.016933 -0.093133,0.0127 -0.1650999,0.0508 -0.071967,0.0381 -0.1185332,0.1015999 -0.046567,0.059267 -0.046567,0.1523999 0,0.1904998 0.1269999,0.2666998 0.1312332,0.071967 0.3513663,0.071967 z M 3.2871783,1.3927674 q 0.2201332,0 0.3682997,0.055033 0.1523999,0.055033 0.2455331,0.1523998 0.093133,0.097367 0.1312332,0.2370665 0.0381,0.1396999 0.0381,0.3047998 v 1.2276656 q -0.1227666,0.021167 -0.3259664,0.0508 -0.1989665,0.029633 -0.410633,0.029633 -0.1608665,0 -0.3132664,-0.029633 Q 2.8680787,3.3951324 2.7495454,3.3273991 2.6310122,3.2554325 2.5590456,3.1326659 2.487079,3.0098994 2.487079,2.8193995 q 0,-0.1693332 0.071967,-0.2836331 0.0762,-0.1185332 0.1904998,-0.1904998 Q 2.8680787,2.2733 3.0162452,2.2436667 3.1686451,2.2098 3.3210449,2.2098 q 0.2074332,0 0.4063997,0.046567 v -0.097367 q 0,-0.0889 -0.021167,-0.1693332 -0.016933,-0.084667 -0.071967,-0.1523999 -0.0508,-0.067733 -0.1439332,-0.1058332 -0.0889,-0.042333 -0.2328331,-0.042333 -0.1820332,0 -0.3174997,0.0254 -0.1354666,0.0254 -0.2074332,0.0508 L 2.6902788,1.477434 q 0.071967,-0.033867 0.2370665,-0.059267 0.1693332,-0.0254 0.359833,-0.0254 z"
         style="font-family:'Ubuntu Mono';-inkscape-font-specification:'Ubuntu Mono'"
         id="path7643" />
    </g>
  </g>
</svg>
