<?xml version="1.0" encoding="UTF-8" standalone="no"?>
<!-- Created with Inkscape (http://www.inkscape.org/) -->

<svg
   xmlns:dc="http://purl.org/dc/elements/1.1/"
   xmlns:cc="http://creativecommons.org/ns#"
   xmlns:rdf="http://www.w3.org/1999/02/22-rdf-syntax-ns#"
   xmlns:svg="http://www.w3.org/2000/svg"
   xmlns="http://www.w3.org/2000/svg"
   xmlns:xlink="http://www.w3.org/1999/xlink"
   xmlns:sodipodi="http://sodipodi.sourceforge.net/DTD/sodipodi-0.dtd"
   xmlns:inkscape="http://www.inkscape.org/namespaces/inkscape"
   width="200px"
   height="200px"
   viewBox="0 0 200 200"
   version="1.1"
   id="svg72"
   inkscape:version="0.92.1 r"
   sodipodi:docname="qgitc.svg">
  <defs
     id="defs9">
    <linearGradient
       inkscape:collect="always"
       id="linearGradient29">
      <stop
         style="stop-color:#000000;stop-opacity:1;"
         offset="0"
         id="stop25" />
      <stop
         style="stop-color:#ff0000;stop-opacity:1"
         offset="1"
         id="stop27" />
    </linearGradient>
    <linearGradient
       inkscape:collect="always"
       xlink:href="#linearGradient29"
       id="linearGradient31"
       x1="63.83094"
       y1="36.149155"
       x2="135.80357"
       y2="51.12989"
       gradientUnits="userSpaceOnUse" />
  </defs>
  <title
     id="title3681">QGitc</title>
  <metadata
     id="metadata76">
    <rdf:RDF>
      <cc:Work
         rdf:about="">
        <dc:format>image/svg+xml</dc:format>
        <dc:type
           rdf:resource="http://purl.org/dc/dcmitype/StillImage" />
        <dc:title>QGitc</dc:title>
        <cc:license
           rdf:resource="http://creativecommons.org/licenses/by/4.0/" />
        <dc:source>https://github.com/timxx/qgitc</dc:source>
      </cc:Work>
      <cc:License
         rdf:about="http://creativecommons.org/licenses/by/4.0/">
        <cc:permits
           rdf:resource="http://creativecommons.org/ns#Reproduction" />
        <cc:permits
           rdf:resource="http://creativecommons.org/ns#Distribution" />
        <cc:requires
           rdf:resource="http://creativecommons.org/ns#Notice" />
        <cc:requires
           rdf:resource="http://creativecommons.org/ns#Attribution" />
        <cc:permits
           rdf:resource="http://creativecommons.org/ns#DerivativeWorks" />
      </cc:License>
    </rdf:RDF>
  </metadata>
  <sodipodi:namedview
     pagecolor="#ffffff"
     bordercolor="#666666"
     borderopacity="1"
     objecttolerance="10"
     gridtolerance="10"
     guidetolerance="10"
     inkscape:pageopacity="0"
     inkscape:pageshadow="2"
     inkscape:window-width="1920"
     inkscape:window-height="1020"
     id="namedview74"
     showgrid="false"
     inkscape:zoom="3.0706112"
     inkscape:cx="47.232993"
     inkscape:cy="104.38508"
     inkscape:window-x="0"
     inkscape:window-y="31"
     inkscape:window-maximized="1"
     inkscape:current-layer="svg72" />
  <g
     id="Page-1"
     transform="matrix(1,0,0,-1,0,200)"
     style="fill:#000000;fill-rule:evenodd;stroke:none;stroke-width:1">
    <g
       id="qgitc"
       style="fill:#000000">
      <path
         d="m 74.875,163.75 c 0,-2.95139 -1.032986,-5.46007 -3.098958,-7.52604 C 69.710069,154.15799 67.201389,153.125 64.25,153.125 c -2.951389,0 -5.460069,1.03299 -7.526042,3.09896 -2.065972,2.06597 -3.098958,4.57465 -3.098958,7.52604 0,2.95139 1.032986,5.46007 3.098958,7.52604 2.065973,2.06597 4.574653,3.09896 7.526042,3.09896 2.951389,0 5.460069,-1.03299 7.526042,-3.09896 C 73.842014,169.21007 74.875,166.70139 74.875,163.75 Z m 0,-127.5 c 0,-2.951389 -1.032986,-5.460069 -3.098958,-7.526042 C 69.710069,26.657986 67.201389,25.625 64.25,25.625 c -2.951389,0 -5.460069,1.032986 -7.526042,3.098958 C 54.657986,30.789931 53.625,33.298611 53.625,36.25 c 0,2.951389 1.032986,5.460069 3.098958,7.526042 2.065973,2.065972 4.574653,3.098958 7.526042,3.098958 2.951389,0 5.460069,-1.032986 7.526042,-3.098958 C 73.842014,41.710069 74.875,39.201389 74.875,36.25 Z m 70.83333,14.166667 c 0,-2.951389 -1.03298,-5.46007 -3.09896,-7.526042 -2.06597,-2.065972 -4.57465,-3.098958 -7.52604,-3.098958 -2.95139,0 -5.46007,1.032986 -7.52604,3.098958 -2.06597,2.065972 -3.09896,4.574653 -3.09896,7.526042 0,2.951389 1.03299,5.460069 3.09896,7.526041 2.06597,2.065973 4.57465,3.098959 7.52604,3.098959 2.95139,0 5.46007,-1.032986 7.52604,-3.098959 2.06598,-2.065972 3.09896,-4.574652 3.09896,-7.526041 z m 10.625,0 c 0,3.836805 -0.9592,7.396918 -2.8776,10.680338 -1.9184,3.28342 -4.50087,5.847439 -7.7474,7.692057 -0.14757,21.176216 -8.48524,36.449658 -25.01302,45.820318 -5.01736,2.80381 -12.50651,5.7921 -22.467445,8.96484 -9.444445,2.95139 -15.6977,5.57075 -18.759766,7.85807 C 76.406033,133.71962 74.875,137.40885 74.875,142.5 v 2.8776 c 3.246528,1.84462 5.828993,4.40864 7.747396,7.69206 C 84.540799,156.35308 85.5,159.91319 85.5,163.75 c 0,5.90278 -2.065972,10.92014 -6.197917,15.05208 C 75.170139,182.93403 70.152778,185 64.25,185 58.347222,185 53.329861,182.93403 49.197917,178.80208 45.065972,174.67014 43,169.65278 43,163.75 c 0,-3.83681 0.959201,-7.39692 2.877604,-10.68034 1.918403,-3.28342 4.500868,-5.84744 7.747396,-7.69206 V 54.622396 C 50.378472,52.777778 47.796007,50.213759 45.877604,46.930338 43.959201,43.646918 43,40.086806 43,36.25 43,30.347222 45.065972,25.329861 49.197917,21.197917 53.329861,17.065972 58.347222,15 64.25,15 70.152778,15 75.170139,17.065972 79.302083,21.197917 83.434028,25.329861 85.5,30.347222 85.5,36.25 c 0,3.836806 -0.959201,7.396918 -2.877604,10.680338 -1.918403,3.283421 -4.500868,5.84744 -7.747396,7.692058 v 55.006514 c 3.984375,-1.91841 9.665799,-4.02127 17.044271,-6.3086 4.05816,-1.25434 7.286241,-2.34266 9.684249,-3.26497 2.398,-0.92231 4.99891,-2.065974 7.80273,-3.430991 2.80382,-1.365017 4.98047,-2.822266 6.52995,-4.371745 1.54948,-1.549479 3.04362,-3.430989 4.48242,-5.644531 1.4388,-2.213542 2.47179,-4.777561 3.09896,-7.692057 0.62717,-2.914497 0.94075,-6.290148 0.94075,-10.126954 -3.24652,-1.844618 -5.82899,-4.408637 -7.74739,-7.692057 -1.9184,-3.28342 -2.87761,-6.843533 -2.87761,-10.680338 0,-5.902778 2.06598,-10.920139 6.19792,-15.052084 4.13194,-4.131944 9.14931,-6.197916 15.05208,-6.197916 5.90278,0 10.92014,2.065972 15.05209,6.197916 4.13194,4.131945 6.19791,9.149306 6.19791,15.052084 z"
         id="code-fork"
         inkscape:connector-curvature="0"
         style="fill:url(#linearGradient31);fill-opacity:1" />
    </g>
  </g>
</svg>
