<svg xmlns="http://www.w3.org/2000/svg" height="16" viewBox="0 -960 768 768" width="16"><path d="M322.4-268.8L304.8-360q-18.4-7.2-35.6-16.8-17.2-9.6-32.4-22.4l-88 29.6L87.2-476l69.6-60.8q-1.6-9.6-2.4-19.2-.8-9.6-.8-20t.8-20q.8-9.6 2.4-19.2L87.2-676l61.6-106.4 88 29.6q15.2-12.8 32.4-22.4 17.2-9.6 35.6-16.8l17.6-91.2h123.2l17.6 91.2q18.4 7.2 35.6 16.8 17.2 9.6 32.4 22.4l88-29.6L680.8-676l-69.6 60.8q1.6 9.6 2.4 19.2.8 9.6.8 20t-.8 20q-.8 9.6-2.4 19.2l69.6 60.8-61.6 106.4-88-29.6q-15.2 12.8-32.4 22.4-17.2 9.6-35.6 16.8l-17.6 91.2zm47.2-57.6h28.8l15.2-79.2q30.4-5.6 56.8-20.8 26.4-15.2 45.6-38.4l76.8 25.6 14.4-24-60.8-53.6q4.8-13.6 7.6-28.4 2.8-14.8 2.8-30.8t-2.8-30.8q-2.8-14.8-7.6-28.4l60.8-53.6-14.4-24-76.8 25.6q-19.2-23.2-45.6-38.4-26.4-15.2-56.8-20.8l-15.2-79.2h-28.8l-15.2 79.2q-30.4 5.6-56.8 20.8-26.4 15.2-45.6 38.4l-76.8-25.6-14.4 24 60.8 53.6q-4.8 13.6-7.6 28.4-2.8 14.8-2.8 30.8t2.8 30.8q2.8 14.8 7.6 28.4l-60.8 53.6 14.4 24 76.8-25.6q19.2 23.2 45.6 38.4 26.4 15.2 56.8 20.8zM384-460.8q48 0 81.6-33.6 33.6-33.6 33.6-81.6 0-48-33.6-81.6-33.6-33.6-81.6-33.6-48 0-81.6 33.6-33.6 33.6-33.6 81.6 0 48 33.6 81.6 33.6 33.6 81.6 33.6zm0-115.2z"/></svg>