<svg height="16" viewBox="0 -960 768 768" width="16" xmlns="http://www.w3.org/2000/svg"><path d="M268.8-460.8h230.4v-230.4H268.8zm115.424 192q-63.424 0-119.424-24-56-24-98-66t-66-97.968q-24-55.968-24-119.6 0-63.632 24-119.232t66-97.6q42-42 97.968-66t119.6-24q63.632 0 119.232 24t97.6 66q42 42 66 97.776 24 55.784 24 119.2 0 63.424-24 119.424-24 56-66 98t-97.776 66q-55.784 24-119.2 24zM384-326.4q104 0 176.8-72.8Q633.6-472 633.6-576q0-104-72.8-176.8Q488-825.6 384-825.6q-104 0-176.8 72.8Q134.4-680 134.4-576q0 104 72.8 176.8Q280-326.4 384-326.4zm0-249.6z"/></svg>