<svg height="16" viewBox="0 -960 768 768" width="16" xmlns="http://www.w3.org/2000/svg"><path d="M268.8-691.2l-96-96 40.8-40.8 96 96zm107.2-68v-136h57.6v136zm219.2 394.4l-96-96 40.8-40.8 96 96zm-45.6-336l-40.8-40.8 96-96 40.8 40.8zM567.2-568v-57.6h136v57.6zM168-265.6l-94.4-95.2q-8.8-8.512-8.8-19.856 0-11.344 9.04-20.36L347.2-674.4q27.832-28 67.6-28 39.768 0 67.6 28 28 27.832 28 67.6 0 39.768-28 67.6L209.016-265.84Q200-256.8 188.36-256.8q-11.632 0-20.36-8.8zM382.4-520l-13.6-13.6-13.6-13.6-13.6-13.6-13.6-13.6 27.2 27.2zM188.8-326.4L382.4-520 328-574.4 134.4-380.8z"/></svg>